<?xml version="1.0" encoding="UTF-8" standalone="no"?>
<!-- Created with Inkscape (http://www.inkscape.org/) -->

<svg
   xmlns:dc="http://purl.org/dc/elements/1.1/"
   xmlns:cc="http://creativecommons.org/ns#"
   xmlns:rdf="http://www.w3.org/1999/02/22-rdf-syntax-ns#"
   xmlns:svg="http://www.w3.org/2000/svg"
   xmlns="http://www.w3.org/2000/svg"
   xmlns:sodipodi="http://sodipodi.sourceforge.net/DTD/sodipodi-0.dtd"
   xmlns:inkscape="http://www.inkscape.org/namespaces/inkscape"
   version="1.1"
   id="svg2"
   xml:space="preserve"
   width="377.41495"
   height="276.45361"
   viewBox="0 0 377.41495 276.45361"
   sodipodi:docname="Model4.svg"
   inkscape:version="0.92.2 5c3e80d, 2017-08-06"><sodipodi:namedview
     pagecolor="#ffffff"
     bordercolor="#666666"
     borderopacity="1"
     objecttolerance="10"
     gridtolerance="10"
     guidetolerance="10"
     inkscape:pageopacity="0"
     inkscape:pageshadow="2"
     inkscape:window-width="1015"
     inkscape:window-height="703"
     id="namedview4"
     showgrid="false"
     inkscape:zoom="0.765625"
     inkscape:cx="121.79267"
     inkscape:cy="136.76029"
     inkscape:window-x="678"
     inkscape:window-y="34"
     inkscape:window-maximized="0"
     inkscape:current-layer="g382"
     fit-margin-top="3"
     fit-margin-left="3"
     fit-margin-bottom="3"
     fit-margin-right="3" /><metadata
     id="metadata8"><rdf:RDF><cc:Work
         rdf:about=""><dc:format>image/svg+xml</dc:format><dc:type
           rdf:resource="http://purl.org/dc/dcmitype/StillImage" /><dc:title></dc:title></cc:Work></rdf:RDF></metadata><defs
     id="defs6"><clipPath
       id="clipPath56"
       clipPathUnits="userSpaceOnUse"><path
         inkscape:connector-curvature="0"
         id="path54"
         d="M 35.98,31.91 H 220.34 V 210.52 H 35.98 Z" /></clipPath></defs><g
     transform="matrix(1.3333333,0,0,-1.3333333,-2.2783864,283.69333)"
     inkscape:label="Model4"
     inkscape:groupmode="layer"
     id="g10"><g
       id="g12" /><g
       id="g14" /><g
       id="g16" /><g
       id="g18" /><g
       id="g20" /><g
       id="g22" /><g
       id="g24" /><g
       id="g26" /><g
       id="g28" /><g
       id="g30" /><g
       id="g32" /><g
       id="g34" /><g
       id="g36" /><g
       id="g38" /><g
       id="g40" /><g
       id="g42" /><g
       id="g48" /><g
       id="g50"><g
         clip-path="url(#clipPath56)"
         id="g52"><path
           inkscape:connector-curvature="0"
           id="path58"
           style="fill:#ebebeb;fill-opacity:1;fill-rule:nonzero;stroke:none"
           d="M 35.98,31.91 H 220.34 V 210.52 H 35.98 Z" /><path
           inkscape:connector-curvature="0"
           id="path60"
           style="fill:none;stroke:#ffffff;stroke-width:0.52999997;stroke-linecap:butt;stroke-linejoin:round;stroke-miterlimit:10;stroke-dasharray:none;stroke-opacity:1"
           d="M 35.98,60.33 H 220.34" /><path
           inkscape:connector-curvature="0"
           id="path62"
           style="fill:none;stroke:#ffffff;stroke-width:0.52999997;stroke-linecap:butt;stroke-linejoin:round;stroke-miterlimit:10;stroke-dasharray:none;stroke-opacity:1"
           d="M 35.98,100.92 H 220.34" /><path
           inkscape:connector-curvature="0"
           id="path64"
           style="fill:none;stroke:#ffffff;stroke-width:0.52999997;stroke-linecap:butt;stroke-linejoin:round;stroke-miterlimit:10;stroke-dasharray:none;stroke-opacity:1"
           d="M 35.98,141.51 H 220.34" /><path
           inkscape:connector-curvature="0"
           id="path66"
           style="fill:none;stroke:#ffffff;stroke-width:0.52999997;stroke-linecap:butt;stroke-linejoin:round;stroke-miterlimit:10;stroke-dasharray:none;stroke-opacity:1"
           d="M 35.98,182.11 H 220.34" /><path
           inkscape:connector-curvature="0"
           id="path68"
           style="fill:none;stroke:#ffffff;stroke-width:0.52999997;stroke-linecap:butt;stroke-linejoin:round;stroke-miterlimit:10;stroke-dasharray:none;stroke-opacity:1"
           d="M 65.62,31.91 V 210.52" /><path
           inkscape:connector-curvature="0"
           id="path70"
           style="fill:none;stroke:#ffffff;stroke-width:0.52999997;stroke-linecap:butt;stroke-linejoin:round;stroke-miterlimit:10;stroke-dasharray:none;stroke-opacity:1"
           d="M 107.31,31.91 V 210.52" /><path
           inkscape:connector-curvature="0"
           id="path72"
           style="fill:none;stroke:#ffffff;stroke-width:0.52999997;stroke-linecap:butt;stroke-linejoin:round;stroke-miterlimit:10;stroke-dasharray:none;stroke-opacity:1"
           d="M 149,31.91 V 210.52" /><path
           inkscape:connector-curvature="0"
           id="path74"
           style="fill:none;stroke:#ffffff;stroke-width:0.52999997;stroke-linecap:butt;stroke-linejoin:round;stroke-miterlimit:10;stroke-dasharray:none;stroke-opacity:1"
           d="M 190.7,31.91 V 210.52" /><path
           inkscape:connector-curvature="0"
           id="path76"
           style="fill:none;stroke:#ffffff;stroke-width:1.07000005;stroke-linecap:butt;stroke-linejoin:round;stroke-miterlimit:10;stroke-dasharray:none;stroke-opacity:1"
           d="M 35.98,40.03 H 220.34" /><path
           inkscape:connector-curvature="0"
           id="path78"
           style="fill:none;stroke:#ffffff;stroke-width:1.07000005;stroke-linecap:butt;stroke-linejoin:round;stroke-miterlimit:10;stroke-dasharray:none;stroke-opacity:1"
           d="M 35.98,80.62 H 220.34" /><path
           inkscape:connector-curvature="0"
           id="path80"
           style="fill:none;stroke:#ffffff;stroke-width:1.07000005;stroke-linecap:butt;stroke-linejoin:round;stroke-miterlimit:10;stroke-dasharray:none;stroke-opacity:1"
           d="M 35.98,121.22 H 220.34" /><path
           inkscape:connector-curvature="0"
           id="path82"
           style="fill:none;stroke:#ffffff;stroke-width:1.07000005;stroke-linecap:butt;stroke-linejoin:round;stroke-miterlimit:10;stroke-dasharray:none;stroke-opacity:1"
           d="M 35.98,161.81 H 220.34" /><path
           inkscape:connector-curvature="0"
           id="path84"
           style="fill:none;stroke:#ffffff;stroke-width:1.07000005;stroke-linecap:butt;stroke-linejoin:round;stroke-miterlimit:10;stroke-dasharray:none;stroke-opacity:1"
           d="M 35.98,202.4 H 220.34" /><path
           inkscape:connector-curvature="0"
           id="path86"
           style="fill:none;stroke:#ffffff;stroke-width:1.07000005;stroke-linecap:butt;stroke-linejoin:round;stroke-miterlimit:10;stroke-dasharray:none;stroke-opacity:1"
           d="M 44.78,31.91 V 210.52" /><path
           inkscape:connector-curvature="0"
           id="path88"
           style="fill:none;stroke:#ffffff;stroke-width:1.07000005;stroke-linecap:butt;stroke-linejoin:round;stroke-miterlimit:10;stroke-dasharray:none;stroke-opacity:1"
           d="M 86.47,31.91 V 210.52" /><path
           inkscape:connector-curvature="0"
           id="path90"
           style="fill:none;stroke:#ffffff;stroke-width:1.07000005;stroke-linecap:butt;stroke-linejoin:round;stroke-miterlimit:10;stroke-dasharray:none;stroke-opacity:1"
           d="M 128.16,31.91 V 210.52" /><path
           inkscape:connector-curvature="0"
           id="path92"
           style="fill:none;stroke:#ffffff;stroke-width:1.07000005;stroke-linecap:butt;stroke-linejoin:round;stroke-miterlimit:10;stroke-dasharray:none;stroke-opacity:1"
           d="M 169.85,31.91 V 210.52" /><path
           inkscape:connector-curvature="0"
           id="path94"
           style="fill:none;stroke:#ffffff;stroke-width:1.07000005;stroke-linecap:butt;stroke-linejoin:round;stroke-miterlimit:10;stroke-dasharray:none;stroke-opacity:1"
           d="M 211.54,31.91 V 210.52" /><path
           inkscape:connector-curvature="0"
           id="path96"
           style="fill:#f8766d;fill-opacity:1;fill-rule:nonzero;stroke:none"
           d="m 42.29,191.88 c 0,1.37 1.12,2.49 2.49,2.49 1.36,0 2.48,-1.12 2.48,-2.49 0,-1.36 -1.12,-2.48 -2.48,-2.48 -1.37,0 -2.49,1.12 -2.49,2.48" /><path
           inkscape:connector-curvature="0"
           id="path98"
           style="fill:#f8766d;fill-opacity:1;fill-rule:nonzero;stroke:none"
           d="m 63.13,161.48 c 0,1.37 1.12,2.49 2.49,2.49 1.37,0 2.49,-1.12 2.49,-2.49 0,-1.36 -1.12,-2.48 -2.49,-2.48 -1.37,0 -2.49,1.12 -2.49,2.48" /><path
           inkscape:connector-curvature="0"
           id="path100"
           style="fill:#f8766d;fill-opacity:1;fill-rule:nonzero;stroke:none"
           d="m 83.98,153.81 c 0,1.37 1.12,2.49 2.49,2.49 1.37,0 2.49,-1.12 2.49,-2.49 0,-1.37 -1.12,-2.49 -2.49,-2.49 -1.37,0 -2.49,1.12 -2.49,2.49" /><path
           inkscape:connector-curvature="0"
           id="path102"
           style="fill:#f8766d;fill-opacity:1;fill-rule:nonzero;stroke:none"
           d="m 104.82,162.15 c 0,1.37 1.12,2.49 2.49,2.49 1.37,0 2.49,-1.12 2.49,-2.49 0,-1.37 -1.12,-2.49 -2.49,-2.49 -1.37,0 -2.49,1.12 -2.49,2.49" /><path
           inkscape:connector-curvature="0"
           id="path104"
           style="fill:#f8766d;fill-opacity:1;fill-rule:nonzero;stroke:none"
           d="m 125.67,181.49 c 0,1.37 1.12,2.49 2.49,2.49 1.37,0 2.49,-1.12 2.49,-2.49 0,-1.37 -1.12,-2.49 -2.49,-2.49 -1.37,0 -2.49,1.12 -2.49,2.49" /><path
           inkscape:connector-curvature="0"
           id="path106"
           style="fill:#f8766d;fill-opacity:1;fill-rule:nonzero;stroke:none"
           d="m 146.52,171.16 c 0,1.37 1.12,2.49 2.48,2.49 1.37,0 2.49,-1.12 2.49,-2.49 0,-1.37 -1.12,-2.49 -2.49,-2.49 -1.36,0 -2.48,1.12 -2.48,2.49" /><path
           inkscape:connector-curvature="0"
           id="path108"
           style="fill:#f8766d;fill-opacity:1;fill-rule:nonzero;stroke:none"
           d="m 167.36,179.02 c 0,1.36 1.12,2.48 2.49,2.48 1.37,0 2.49,-1.12 2.49,-2.48 0,-1.37 -1.12,-2.49 -2.49,-2.49 -1.37,0 -2.49,1.12 -2.49,2.49" /><path
           inkscape:connector-curvature="0"
           id="path110"
           style="fill:#f8766d;fill-opacity:1;fill-rule:nonzero;stroke:none"
           d="m 188.21,173.61 c 0,1.37 1.12,2.49 2.49,2.49 1.36,0 2.48,-1.12 2.48,-2.49 0,-1.37 -1.12,-2.49 -2.48,-2.49 -1.37,0 -2.49,1.12 -2.49,2.49" /><path
           inkscape:connector-curvature="0"
           id="path112"
           style="fill:#f8766d;fill-opacity:1;fill-rule:nonzero;stroke:none"
           d="m 209.05,170.42 c 0,1.37 1.12,2.49 2.49,2.49 1.37,0 2.49,-1.12 2.49,-2.49 0,-1.37 -1.12,-2.49 -2.49,-2.49 -1.37,0 -2.49,1.12 -2.49,2.49" /><path
           inkscape:connector-curvature="0"
           id="path114"
           style="fill:#00bfc4;fill-opacity:1;fill-rule:nonzero;stroke:none"
           d="m 44.78,101.71 3.35,-5.8 h -6.71 z" /><path
           inkscape:connector-curvature="0"
           id="path116"
           style="fill:#00bfc4;fill-opacity:1;fill-rule:nonzero;stroke:none"
           d="m 65.62,91.05 3.35,-5.81 h -6.7 z" /><path
           inkscape:connector-curvature="0"
           id="path118"
           style="fill:#00bfc4;fill-opacity:1;fill-rule:nonzero;stroke:none"
           d="m 86.47,87.34 3.35,-5.81 h -6.7 z" /><path
           inkscape:connector-curvature="0"
           id="path120"
           style="fill:#00bfc4;fill-opacity:1;fill-rule:nonzero;stroke:none"
           d="m 107.31,64.55 3.35,-5.8 h -6.7 z" /><path
           inkscape:connector-curvature="0"
           id="path122"
           style="fill:#00bfc4;fill-opacity:1;fill-rule:nonzero;stroke:none"
           d="m 128.16,62.03 3.35,-5.81 h -6.7 z" /><path
           inkscape:connector-curvature="0"
           id="path124"
           style="fill:#00bfc4;fill-opacity:1;fill-rule:nonzero;stroke:none"
           d="m 149,65.22 3.36,-5.8 h -6.71 z" /><path
           inkscape:connector-curvature="0"
           id="path126"
           style="fill:#00bfc4;fill-opacity:1;fill-rule:nonzero;stroke:none"
           d="m 169.85,60.18 3.35,-5.81 h -6.7 z" /><path
           inkscape:connector-curvature="0"
           id="path128"
           style="fill:#00bfc4;fill-opacity:1;fill-rule:nonzero;stroke:none"
           d="m 190.7,50.05 3.35,-5.8 h -6.71 z" /><path
           inkscape:connector-curvature="0"
           id="path130"
           style="fill:#00bfc4;fill-opacity:1;fill-rule:nonzero;stroke:none"
           d="m 211.54,55.55 3.35,-5.81 h -6.7 z" /><path
           inkscape:connector-curvature="0"
           id="path132"
           style="fill:none;stroke:#f8766d;stroke-width:1.07000005;stroke-linecap:butt;stroke-linejoin:round;stroke-miterlimit:10;stroke-dasharray:none;stroke-opacity:1"
           d="m 44.78,191.88 20.84,-30.4 20.85,-7.67 20.84,8.34 20.85,19.34 20.84,-10.33 20.85,7.86 20.85,-5.41 20.84,-3.19" /><path
           inkscape:connector-curvature="0"
           id="path134"
           style="fill:none;stroke:#00bfc4;stroke-width:1.07000005;stroke-linecap:butt;stroke-linejoin:round;stroke-miterlimit:10;stroke-dasharray:none;stroke-opacity:1"
           d="m 44.78,97.84 20.84,-10.66 20.85,-3.71 20.84,-22.79 20.85,-2.52 20.84,3.19 20.85,-5.04 20.85,-10.13 20.84,5.5" /><path
           inkscape:connector-curvature="0"
           id="path136"
           style="fill:none;stroke:#000000;stroke-width:1.07000005;stroke-linecap:butt;stroke-linejoin:round;stroke-miterlimit:10;stroke-dasharray:none;stroke-opacity:1"
           d="m 44.36,200.75 h 0.83" /><path
           inkscape:connector-curvature="0"
           id="path138"
           style="fill:none;stroke:#000000;stroke-width:1.07000005;stroke-linecap:butt;stroke-linejoin:round;stroke-miterlimit:10;stroke-dasharray:none;stroke-opacity:1"
           d="M 44.78,200.75 V 183.02" /><path
           inkscape:connector-curvature="0"
           id="path140"
           style="fill:none;stroke:#000000;stroke-width:1.07000005;stroke-linecap:butt;stroke-linejoin:round;stroke-miterlimit:10;stroke-dasharray:none;stroke-opacity:1"
           d="m 44.36,183.02 h 0.83" /><path
           inkscape:connector-curvature="0"
           id="path142"
           style="fill:none;stroke:#000000;stroke-width:1.07000005;stroke-linecap:butt;stroke-linejoin:round;stroke-miterlimit:10;stroke-dasharray:none;stroke-opacity:1"
           d="m 65.2,169.08 h 0.84" /><path
           inkscape:connector-curvature="0"
           id="path144"
           style="fill:none;stroke:#000000;stroke-width:1.07000005;stroke-linecap:butt;stroke-linejoin:round;stroke-miterlimit:10;stroke-dasharray:none;stroke-opacity:1"
           d="M 65.62,169.08 V 153.89" /><path
           inkscape:connector-curvature="0"
           id="path146"
           style="fill:none;stroke:#000000;stroke-width:1.07000005;stroke-linecap:butt;stroke-linejoin:round;stroke-miterlimit:10;stroke-dasharray:none;stroke-opacity:1"
           d="m 65.2,153.89 h 0.84" /><path
           inkscape:connector-curvature="0"
           id="path148"
           style="fill:none;stroke:#000000;stroke-width:1.07000005;stroke-linecap:butt;stroke-linejoin:round;stroke-miterlimit:10;stroke-dasharray:none;stroke-opacity:1"
           d="m 86.05,161.42 h 0.83" /><path
           inkscape:connector-curvature="0"
           id="path150"
           style="fill:none;stroke:#000000;stroke-width:1.07000005;stroke-linecap:butt;stroke-linejoin:round;stroke-miterlimit:10;stroke-dasharray:none;stroke-opacity:1"
           d="M 86.47,161.42 V 146.2" /><path
           inkscape:connector-curvature="0"
           id="path152"
           style="fill:none;stroke:#000000;stroke-width:1.07000005;stroke-linecap:butt;stroke-linejoin:round;stroke-miterlimit:10;stroke-dasharray:none;stroke-opacity:1"
           d="m 86.05,146.2 h 0.83" /><path
           inkscape:connector-curvature="0"
           id="path154"
           style="fill:none;stroke:#000000;stroke-width:1.07000005;stroke-linecap:butt;stroke-linejoin:round;stroke-miterlimit:10;stroke-dasharray:none;stroke-opacity:1"
           d="m 106.9,173.4 h 0.83" /><path
           inkscape:connector-curvature="0"
           id="path156"
           style="fill:none;stroke:#000000;stroke-width:1.07000005;stroke-linecap:butt;stroke-linejoin:round;stroke-miterlimit:10;stroke-dasharray:none;stroke-opacity:1"
           d="M 107.31,173.4 V 150.89" /><path
           inkscape:connector-curvature="0"
           id="path158"
           style="fill:none;stroke:#000000;stroke-width:1.07000005;stroke-linecap:butt;stroke-linejoin:round;stroke-miterlimit:10;stroke-dasharray:none;stroke-opacity:1"
           d="m 106.9,150.89 h 0.83" /><path
           inkscape:connector-curvature="0"
           id="path160"
           style="fill:none;stroke:#000000;stroke-width:1.07000005;stroke-linecap:butt;stroke-linejoin:round;stroke-miterlimit:10;stroke-dasharray:none;stroke-opacity:1"
           d="m 127.74,192.41 h 0.84" /><path
           inkscape:connector-curvature="0"
           id="path162"
           style="fill:none;stroke:#000000;stroke-width:1.07000005;stroke-linecap:butt;stroke-linejoin:round;stroke-miterlimit:10;stroke-dasharray:none;stroke-opacity:1"
           d="M 128.16,192.41 V 170.57" /><path
           inkscape:connector-curvature="0"
           id="path164"
           style="fill:none;stroke:#000000;stroke-width:1.07000005;stroke-linecap:butt;stroke-linejoin:round;stroke-miterlimit:10;stroke-dasharray:none;stroke-opacity:1"
           d="m 127.74,170.57 h 0.84" /><path
           inkscape:connector-curvature="0"
           id="path166"
           style="fill:none;stroke:#000000;stroke-width:1.07000005;stroke-linecap:butt;stroke-linejoin:round;stroke-miterlimit:10;stroke-dasharray:none;stroke-opacity:1"
           d="m 148.59,180.32 h 0.83" /><path
           inkscape:connector-curvature="0"
           id="path168"
           style="fill:none;stroke:#000000;stroke-width:1.07000005;stroke-linecap:butt;stroke-linejoin:round;stroke-miterlimit:10;stroke-dasharray:none;stroke-opacity:1"
           d="M 149,180.32 V 162" /><path
           inkscape:connector-curvature="0"
           id="path170"
           style="fill:none;stroke:#000000;stroke-width:1.07000005;stroke-linecap:butt;stroke-linejoin:round;stroke-miterlimit:10;stroke-dasharray:none;stroke-opacity:1"
           d="m 148.59,162 h 0.83" /><path
           inkscape:connector-curvature="0"
           id="path172"
           style="fill:none;stroke:#000000;stroke-width:1.07000005;stroke-linecap:butt;stroke-linejoin:round;stroke-miterlimit:10;stroke-dasharray:none;stroke-opacity:1"
           d="m 169.43,187.95 h 0.84" /><path
           inkscape:connector-curvature="0"
           id="path174"
           style="fill:none;stroke:#000000;stroke-width:1.07000005;stroke-linecap:butt;stroke-linejoin:round;stroke-miterlimit:10;stroke-dasharray:none;stroke-opacity:1"
           d="M 169.85,187.95 V 170.08" /><path
           inkscape:connector-curvature="0"
           id="path176"
           style="fill:none;stroke:#000000;stroke-width:1.07000005;stroke-linecap:butt;stroke-linejoin:round;stroke-miterlimit:10;stroke-dasharray:none;stroke-opacity:1"
           d="m 169.43,170.08 h 0.84" /><path
           inkscape:connector-curvature="0"
           id="path178"
           style="fill:none;stroke:#000000;stroke-width:1.07000005;stroke-linecap:butt;stroke-linejoin:round;stroke-miterlimit:10;stroke-dasharray:none;stroke-opacity:1"
           d="m 190.28,184.02 h 0.83" /><path
           inkscape:connector-curvature="0"
           id="path180"
           style="fill:none;stroke:#000000;stroke-width:1.07000005;stroke-linecap:butt;stroke-linejoin:round;stroke-miterlimit:10;stroke-dasharray:none;stroke-opacity:1"
           d="M 190.7,184.02 V 163.2" /><path
           inkscape:connector-curvature="0"
           id="path182"
           style="fill:none;stroke:#000000;stroke-width:1.07000005;stroke-linecap:butt;stroke-linejoin:round;stroke-miterlimit:10;stroke-dasharray:none;stroke-opacity:1"
           d="m 190.28,163.2 h 0.83" /><path
           inkscape:connector-curvature="0"
           id="path184"
           style="fill:none;stroke:#000000;stroke-width:1.07000005;stroke-linecap:butt;stroke-linejoin:round;stroke-miterlimit:10;stroke-dasharray:none;stroke-opacity:1"
           d="m 211.12,180.77 h 0.84" /><path
           inkscape:connector-curvature="0"
           id="path186"
           style="fill:none;stroke:#000000;stroke-width:1.07000005;stroke-linecap:butt;stroke-linejoin:round;stroke-miterlimit:10;stroke-dasharray:none;stroke-opacity:1"
           d="M 211.54,180.77 V 160.06" /><path
           inkscape:connector-curvature="0"
           id="path188"
           style="fill:none;stroke:#000000;stroke-width:1.07000005;stroke-linecap:butt;stroke-linejoin:round;stroke-miterlimit:10;stroke-dasharray:none;stroke-opacity:1"
           d="m 211.12,160.06 h 0.84" /><path
           inkscape:connector-curvature="0"
           id="path190"
           style="fill:none;stroke:#000000;stroke-width:1.07000005;stroke-linecap:butt;stroke-linejoin:round;stroke-miterlimit:10;stroke-dasharray:none;stroke-opacity:1"
           d="m 44.36,99.12 h 0.83" /><path
           inkscape:connector-curvature="0"
           id="path192"
           style="fill:none;stroke:#000000;stroke-width:1.07000005;stroke-linecap:butt;stroke-linejoin:round;stroke-miterlimit:10;stroke-dasharray:none;stroke-opacity:1"
           d="M 44.78,99.12 V 96.56" /><path
           inkscape:connector-curvature="0"
           id="path194"
           style="fill:none;stroke:#000000;stroke-width:1.07000005;stroke-linecap:butt;stroke-linejoin:round;stroke-miterlimit:10;stroke-dasharray:none;stroke-opacity:1"
           d="m 44.36,96.56 h 0.83" /><path
           inkscape:connector-curvature="0"
           id="path196"
           style="fill:none;stroke:#000000;stroke-width:1.07000005;stroke-linecap:butt;stroke-linejoin:round;stroke-miterlimit:10;stroke-dasharray:none;stroke-opacity:1"
           d="m 65.2,87.9 h 0.84" /><path
           inkscape:connector-curvature="0"
           id="path198"
           style="fill:none;stroke:#000000;stroke-width:1.07000005;stroke-linecap:butt;stroke-linejoin:round;stroke-miterlimit:10;stroke-dasharray:none;stroke-opacity:1"
           d="M 65.62,87.9 V 86.46" /><path
           inkscape:connector-curvature="0"
           id="path200"
           style="fill:none;stroke:#000000;stroke-width:1.07000005;stroke-linecap:butt;stroke-linejoin:round;stroke-miterlimit:10;stroke-dasharray:none;stroke-opacity:1"
           d="m 65.2,86.46 h 0.84" /><path
           inkscape:connector-curvature="0"
           id="path202"
           style="fill:none;stroke:#000000;stroke-width:1.07000005;stroke-linecap:butt;stroke-linejoin:round;stroke-miterlimit:10;stroke-dasharray:none;stroke-opacity:1"
           d="m 86.05,84.87 h 0.83" /><path
           inkscape:connector-curvature="0"
           id="path204"
           style="fill:none;stroke:#000000;stroke-width:1.07000005;stroke-linecap:butt;stroke-linejoin:round;stroke-miterlimit:10;stroke-dasharray:none;stroke-opacity:1"
           d="m 86.47,84.87 v -2.8" /><path
           inkscape:connector-curvature="0"
           id="path206"
           style="fill:none;stroke:#000000;stroke-width:1.07000005;stroke-linecap:butt;stroke-linejoin:round;stroke-miterlimit:10;stroke-dasharray:none;stroke-opacity:1"
           d="m 86.05,82.07 h 0.83" /><path
           inkscape:connector-curvature="0"
           id="path208"
           style="fill:none;stroke:#000000;stroke-width:1.07000005;stroke-linecap:butt;stroke-linejoin:round;stroke-miterlimit:10;stroke-dasharray:none;stroke-opacity:1"
           d="m 106.9,61.97 h 0.83" /><path
           inkscape:connector-curvature="0"
           id="path210"
           style="fill:none;stroke:#000000;stroke-width:1.07000005;stroke-linecap:butt;stroke-linejoin:round;stroke-miterlimit:10;stroke-dasharray:none;stroke-opacity:1"
           d="M 107.31,61.97 V 59.4" /><path
           inkscape:connector-curvature="0"
           id="path212"
           style="fill:none;stroke:#000000;stroke-width:1.07000005;stroke-linecap:butt;stroke-linejoin:round;stroke-miterlimit:10;stroke-dasharray:none;stroke-opacity:1"
           d="m 106.9,59.4 h 0.83" /><path
           inkscape:connector-curvature="0"
           id="path214"
           style="fill:none;stroke:#000000;stroke-width:1.07000005;stroke-linecap:butt;stroke-linejoin:round;stroke-miterlimit:10;stroke-dasharray:none;stroke-opacity:1"
           d="m 127.74,58.24 h 0.84" /><path
           inkscape:connector-curvature="0"
           id="path216"
           style="fill:none;stroke:#000000;stroke-width:1.07000005;stroke-linecap:butt;stroke-linejoin:round;stroke-miterlimit:10;stroke-dasharray:none;stroke-opacity:1"
           d="M 128.16,58.24 V 58.08" /><path
           inkscape:connector-curvature="0"
           id="path218"
           style="fill:none;stroke:#000000;stroke-width:1.07000005;stroke-linecap:butt;stroke-linejoin:round;stroke-miterlimit:10;stroke-dasharray:none;stroke-opacity:1"
           d="m 127.74,58.08 h 0.84" /><path
           inkscape:connector-curvature="0"
           id="path220"
           style="fill:none;stroke:#000000;stroke-width:1.07000005;stroke-linecap:butt;stroke-linejoin:round;stroke-miterlimit:10;stroke-dasharray:none;stroke-opacity:1"
           d="m 148.59,62.21 h 0.83" /><path
           inkscape:connector-curvature="0"
           id="path222"
           style="fill:none;stroke:#000000;stroke-width:1.07000005;stroke-linecap:butt;stroke-linejoin:round;stroke-miterlimit:10;stroke-dasharray:none;stroke-opacity:1"
           d="M 149,62.21 V 60.49" /><path
           inkscape:connector-curvature="0"
           id="path224"
           style="fill:none;stroke:#000000;stroke-width:1.07000005;stroke-linecap:butt;stroke-linejoin:round;stroke-miterlimit:10;stroke-dasharray:none;stroke-opacity:1"
           d="m 148.59,60.49 h 0.83" /><path
           inkscape:connector-curvature="0"
           id="path226"
           style="fill:none;stroke:#000000;stroke-width:1.07000005;stroke-linecap:butt;stroke-linejoin:round;stroke-miterlimit:10;stroke-dasharray:none;stroke-opacity:1"
           d="m 169.43,58.03 h 0.84" /><path
           inkscape:connector-curvature="0"
           id="path228"
           style="fill:none;stroke:#000000;stroke-width:1.07000005;stroke-linecap:butt;stroke-linejoin:round;stroke-miterlimit:10;stroke-dasharray:none;stroke-opacity:1"
           d="M 169.85,58.03 V 54.58" /><path
           inkscape:connector-curvature="0"
           id="path230"
           style="fill:none;stroke:#000000;stroke-width:1.07000005;stroke-linecap:butt;stroke-linejoin:round;stroke-miterlimit:10;stroke-dasharray:none;stroke-opacity:1"
           d="m 169.43,54.58 h 0.84" /><path
           inkscape:connector-curvature="0"
           id="path232"
           style="fill:none;stroke:#000000;stroke-width:1.07000005;stroke-linecap:butt;stroke-linejoin:round;stroke-miterlimit:10;stroke-dasharray:none;stroke-opacity:1"
           d="m 190.28,47.73 h 0.83" /><path
           inkscape:connector-curvature="0"
           id="path234"
           style="fill:none;stroke:#000000;stroke-width:1.07000005;stroke-linecap:butt;stroke-linejoin:round;stroke-miterlimit:10;stroke-dasharray:none;stroke-opacity:1"
           d="m 190.7,47.73 v -3.1" /><path
           inkscape:connector-curvature="0"
           id="path236"
           style="fill:none;stroke:#000000;stroke-width:1.07000005;stroke-linecap:butt;stroke-linejoin:round;stroke-miterlimit:10;stroke-dasharray:none;stroke-opacity:1"
           d="m 190.28,44.63 h 0.83" /><path
           inkscape:connector-curvature="0"
           id="path238"
           style="fill:none;stroke:#000000;stroke-width:1.07000005;stroke-linecap:butt;stroke-linejoin:round;stroke-miterlimit:10;stroke-dasharray:none;stroke-opacity:1"
           d="m 211.12,51.78 h 0.84" /><path
           inkscape:connector-curvature="0"
           id="path240"
           style="fill:none;stroke:#000000;stroke-width:1.07000005;stroke-linecap:butt;stroke-linejoin:round;stroke-miterlimit:10;stroke-dasharray:none;stroke-opacity:1"
           d="M 211.54,51.78 V 51.57" /><path
           inkscape:connector-curvature="0"
           id="path242"
           style="fill:none;stroke:#000000;stroke-width:1.07000005;stroke-linecap:butt;stroke-linejoin:round;stroke-miterlimit:10;stroke-dasharray:none;stroke-opacity:1"
           d="m 211.12,51.57 h 0.84" /></g></g><g
       id="g244" /><g
       id="g246" /><g
       id="g248" /><g
       id="g250" /><g
       id="g252" /><g
       id="g254" /><g
       id="g256" /><g
       id="g258" /><g
       id="g260" /><g
       id="g262" /><g
       id="g264" /><g
       id="g266" /><g
       id="g268" /><g
       id="g270" /><g
       id="g272" /><g
       id="g274"><text
         id="text278"
         style="font-variant:normal;font-weight:normal;font-size:9px;font-family:Helvetica;-inkscape-font-specification:Helvetica;writing-mode:lr-tb;fill:#4d4d4d;fill-opacity:1;fill-rule:nonzero;stroke:none"
         transform="matrix(1,0,0,-1,18.54,36.8)"><tspan
           id="tspan276"
           sodipodi:role="line"
           y="0"
           x="0 5.0040002 7.506">2.5</tspan></text>
<text
         id="text282"
         style="font-variant:normal;font-weight:normal;font-size:9px;font-family:Helvetica;-inkscape-font-specification:Helvetica;writing-mode:lr-tb;fill:#4d4d4d;fill-opacity:1;fill-rule:nonzero;stroke:none"
         transform="matrix(1,0,0,-1,18.54,77.39)"><tspan
           id="tspan280"
           sodipodi:role="line"
           y="0"
           x="0 5.0040002 7.506">3.5</tspan></text>
<text
         id="text286"
         style="font-variant:normal;font-weight:normal;font-size:9px;font-family:Helvetica;-inkscape-font-specification:Helvetica;writing-mode:lr-tb;fill:#4d4d4d;fill-opacity:1;fill-rule:nonzero;stroke:none"
         transform="matrix(1,0,0,-1,18.54,117.98)"><tspan
           id="tspan284"
           sodipodi:role="line"
           y="0"
           x="0 5.0040002 7.506">4.5</tspan></text>
<text
         id="text290"
         style="font-variant:normal;font-weight:normal;font-size:9px;font-family:Helvetica;-inkscape-font-specification:Helvetica;writing-mode:lr-tb;fill:#4d4d4d;fill-opacity:1;fill-rule:nonzero;stroke:none"
         transform="matrix(1,0,0,-1,18.54,158.58)"><tspan
           id="tspan288"
           sodipodi:role="line"
           y="0"
           x="0 5.0040002 7.506">5.5</tspan></text>
<text
         id="text294"
         style="font-variant:normal;font-weight:normal;font-size:9px;font-family:Helvetica;-inkscape-font-specification:Helvetica;writing-mode:lr-tb;fill:#4d4d4d;fill-opacity:1;fill-rule:nonzero;stroke:none"
         transform="matrix(1,0,0,-1,18.54,199.17)"><tspan
           id="tspan292"
           sodipodi:role="line"
           y="0"
           x="0 5.0040002 7.506">6.5</tspan></text>
</g><g
       id="g296" /><g
       id="g298"><path
         inkscape:connector-curvature="0"
         id="path300"
         style="fill:none;stroke:#333333;stroke-width:1.07000005;stroke-linecap:butt;stroke-linejoin:round;stroke-miterlimit:10;stroke-dasharray:none;stroke-opacity:1"
         d="m 33.24,40.03 h 2.74" /><path
         inkscape:connector-curvature="0"
         id="path302"
         style="fill:none;stroke:#333333;stroke-width:1.07000005;stroke-linecap:butt;stroke-linejoin:round;stroke-miterlimit:10;stroke-dasharray:none;stroke-opacity:1"
         d="m 33.24,80.62 h 2.74" /><path
         inkscape:connector-curvature="0"
         id="path304"
         style="fill:none;stroke:#333333;stroke-width:1.07000005;stroke-linecap:butt;stroke-linejoin:round;stroke-miterlimit:10;stroke-dasharray:none;stroke-opacity:1"
         d="m 33.24,121.22 h 2.74" /><path
         inkscape:connector-curvature="0"
         id="path306"
         style="fill:none;stroke:#333333;stroke-width:1.07000005;stroke-linecap:butt;stroke-linejoin:round;stroke-miterlimit:10;stroke-dasharray:none;stroke-opacity:1"
         d="m 33.24,161.81 h 2.74" /><path
         inkscape:connector-curvature="0"
         id="path308"
         style="fill:none;stroke:#333333;stroke-width:1.07000005;stroke-linecap:butt;stroke-linejoin:round;stroke-miterlimit:10;stroke-dasharray:none;stroke-opacity:1"
         d="m 33.24,202.4 h 2.74" /></g><g
       id="g310" /><g
       id="g312" /><g
       id="g314" /><g
       id="g316" /><g
       id="g318" /><g
       id="g320" /><g
       id="g322" /><g
       id="g324" /><g
       id="g326" /><g
       id="g328"><path
         inkscape:connector-curvature="0"
         id="path330"
         style="fill:none;stroke:#333333;stroke-width:1.07000005;stroke-linecap:butt;stroke-linejoin:round;stroke-miterlimit:10;stroke-dasharray:none;stroke-opacity:1"
         d="m 44.78,29.17 v 2.74" /><path
         inkscape:connector-curvature="0"
         id="path332"
         style="fill:none;stroke:#333333;stroke-width:1.07000005;stroke-linecap:butt;stroke-linejoin:round;stroke-miterlimit:10;stroke-dasharray:none;stroke-opacity:1"
         d="m 86.47,29.17 v 2.74" /><path
         inkscape:connector-curvature="0"
         id="path334"
         style="fill:none;stroke:#333333;stroke-width:1.07000005;stroke-linecap:butt;stroke-linejoin:round;stroke-miterlimit:10;stroke-dasharray:none;stroke-opacity:1"
         d="m 128.16,29.17 v 2.74" /><path
         inkscape:connector-curvature="0"
         id="path336"
         style="fill:none;stroke:#333333;stroke-width:1.07000005;stroke-linecap:butt;stroke-linejoin:round;stroke-miterlimit:10;stroke-dasharray:none;stroke-opacity:1"
         d="m 169.85,29.17 v 2.74" /><path
         inkscape:connector-curvature="0"
         id="path338"
         style="fill:none;stroke:#333333;stroke-width:1.07000005;stroke-linecap:butt;stroke-linejoin:round;stroke-miterlimit:10;stroke-dasharray:none;stroke-opacity:1"
         d="m 211.54,29.17 v 2.74" /></g><g
       id="g340" /><g
       id="g342"><text
         id="text346"
         style="font-variant:normal;font-weight:normal;font-size:9px;font-family:Helvetica;-inkscape-font-specification:Helvetica;writing-mode:lr-tb;fill:#4d4d4d;fill-opacity:1;fill-rule:nonzero;stroke:none"
         transform="matrix(1,0,0,-1,39.77,20.52)"><tspan
           id="tspan344"
           sodipodi:role="line"
           y="0"
           x="0 5.0040002">15</tspan></text>
<text
         id="text350"
         style="font-variant:normal;font-weight:normal;font-size:9px;font-family:Helvetica;-inkscape-font-specification:Helvetica;writing-mode:lr-tb;fill:#4d4d4d;fill-opacity:1;fill-rule:nonzero;stroke:none"
         transform="matrix(1,0,0,-1,81.46,20.52)"><tspan
           id="tspan348"
           sodipodi:role="line"
           y="0"
           x="0 5.0040002">25</tspan></text>
<text
         id="text354"
         style="font-variant:normal;font-weight:normal;font-size:9px;font-family:Helvetica;-inkscape-font-specification:Helvetica;writing-mode:lr-tb;fill:#4d4d4d;fill-opacity:1;fill-rule:nonzero;stroke:none"
         transform="matrix(1,0,0,-1,123.15,20.52)"><tspan
           id="tspan352"
           sodipodi:role="line"
           y="0"
           x="0 5.0040002">35</tspan></text>
<text
         id="text358"
         style="font-variant:normal;font-weight:normal;font-size:9px;font-family:Helvetica;-inkscape-font-specification:Helvetica;writing-mode:lr-tb;fill:#4d4d4d;fill-opacity:1;fill-rule:nonzero;stroke:none"
         transform="matrix(1,0,0,-1,164.85,20.52)"><tspan
           id="tspan356"
           sodipodi:role="line"
           y="0"
           x="0 5.0040002">45</tspan></text>
<text
         id="text362"
         style="font-variant:normal;font-weight:normal;font-size:9px;font-family:Helvetica;-inkscape-font-specification:Helvetica;writing-mode:lr-tb;fill:#4d4d4d;fill-opacity:1;fill-rule:nonzero;stroke:none"
         transform="matrix(1,0,0,-1,206.54,20.52)"><tspan
           id="tspan360"
           sodipodi:role="line"
           y="0"
           x="0 5.0040002">55</tspan></text>
</g><g
       id="g364" /><g
       id="g366" /><g
       id="g368" /><g
       id="g370" /><g
       id="g372" /><g
       id="g374"><text
         id="text378"
         style="font-variant:normal;font-weight:normal;font-size:11px;font-family:Helvetica;-inkscape-font-specification:Helvetica;writing-mode:lr-tb;fill:#000000;fill-opacity:1;fill-rule:nonzero;stroke:none"
         transform="matrix(1,0,0,-1,103.09,7.9)"><tspan
           id="tspan376"
           sodipodi:role="line"
           y="0"
           x="0 6.1160002 8.5579996 17.721001 23.837 29.952999 35.452999 37.895 44.011002">dimension</tspan></text>
</g><g
       id="g380" /><g
       id="g382"><text
         id="text386"
         style="font-variant:normal;font-weight:normal;font-size:8.95727921px;font-family:Helvetica;-inkscape-font-specification:Helvetica;writing-mode:lr-tb;fill:#000000;fill-opacity:1;fill-rule:nonzero;stroke:none;stroke-width:0.81429815"
         transform="matrix(0,1,1,0,0,0)"
         x="90.897141"
         y="12.404583"><tspan
           id="tspan384"
           sodipodi:role="line"
           y="12.404583"
           x="90.897141 98.358559 104.33306 110.30756"
           style="stroke-width:0.81429815">MAE </tspan></text>
<g
         id="g1512"
         transform="matrix(0,0.49070977,0.49070977,0,-47.051248,57.094171)"><g
           word-spacing="normal"
           letter-spacing="normal"
           font-size-adjust="none"
           font-stretch="normal"
           font-weight="normal"
           font-variant="normal"
           font-style="normal"
           stroke-miterlimit="10.433"
           xml:space="preserve"
           transform="matrix(0.41142857,0,0,-0.41142857,-72,288)"
           id="content"
           style="font-style:normal;font-variant:normal;font-weight:normal;font-stretch:normal;letter-spacing:normal;word-spacing:normal;text-anchor:start;fill:none;fill-opacity:1;fill-rule:evenodd;stroke:#000000;stroke-linecap:butt;stroke-linejoin:miter;stroke-miterlimit:10.43299961;stroke-dasharray:none;stroke-dashoffset:0;stroke-opacity:1"><path
             id="path1501"
             d="m 474.89,420.04 -9.95,9.92 c -0.61,0.6 -0.7,0.71 -1.11,0.71 -0.48,0 -0.98,-0.46 -0.98,-1 0,-0.36 0.09,-0.46 0.64,-1 l 9.97,-10.02 -9.97,-10.01 c -0.55,-0.55 -0.64,-0.64 -0.64,-1 0,-0.55 0.5,-0.99 0.98,-0.99 0.41,0 0.5,0.1 1.11,0.69 l 9.91,9.92 10.31,-10.31 c 0.11,-0.05 0.45,-0.3 0.75,-0.3 0.59,0 1,0.44 1,0.99 0,0.11 0,0.31 -0.16,0.56 -0.04,0.09 -7.96,7.92 -10.45,10.45 l 9.11,9.13 c 0.25,0.29 1,0.93 1.25,1.23 0.05,0.11 0.25,0.3 0.25,0.66 0,0.54 -0.41,1 -1,1 -0.39,0 -0.59,-0.21 -1.14,-0.75 z"
             inkscape:connector-curvature="0"
             style="fill:#000000;stroke-width:0" /><path
             id="path1503"
             d="m 508.92,438.09 v 0.05 0.06 0.05 0.05 0.05 0.05 0.04 0.05 l -0.01,0.04 v 0.04 0.04 0.04 0.04 0.03 l -0.01,0.04 v 0.03 l -0.01,0.07 -0.01,0.06 -0.01,0.05 -0.01,0.05 -0.02,0.05 -0.02,0.04 -0.02,0.04 -0.02,0.03 -0.03,0.03 -0.04,0.03 -0.03,0.03 -0.04,0.02 -0.04,0.02 -0.03,0.01 -0.02,0.01 h -0.03 l -0.03,0.01 -0.02,0.01 h -0.03 l -0.03,0.01 h -0.04 l -0.03,0.01 h -0.03 -0.04 l -0.04,0.01 h -0.04 -0.04 -0.04 -0.04 -0.05 l -0.04,0.01 h -0.05 -0.05 -0.05 -0.05 c -3.1,-3.19 -7.47,-3.19 -9.07,-3.19 v -1.55 c 1,0 3.94,0 6.52,1.3 v -25.81 c 0,-1.8 -0.14,-2.39 -4.62,-2.39 h -1.6 v -1.55 c 1.75,0.16 6.08,0.16 8.06,0.16 2,0 6.33,0 8.08,-0.16 v 1.55 h -1.59 c -4.49,0 -4.64,0.54 -4.64,2.39 z"
             inkscape:connector-curvature="0"
             style="fill:#000000;stroke-width:0" /><path
             id="path1505"
             d="m 542.16,422.14 -0.01,0.74 -0.01,0.75 -0.02,0.75 -0.03,0.74 -0.05,0.75 -0.06,0.74 -0.07,0.74 -0.1,0.73 -0.11,0.73 -0.14,0.73 -0.16,0.72 -0.19,0.72 -0.22,0.72 -0.25,0.7 -0.27,0.7 -0.15,0.35 -0.16,0.34 c -2.28,4.8 -6.38,5.6 -8.47,5.6 -2.99,0 -6.63,-1.3 -8.67,-5.94 -1.6,-3.44 -1.85,-7.33 -1.85,-11.31 0,-3.74 0.21,-8.22 2.25,-12 2.14,-4.03 5.78,-5.03 8.22,-5.03 v 1.09 c -1.94,0 -4.89,1.25 -5.78,6.03 -0.55,2.98 -0.55,7.56 -0.55,10.52 0,3.18 0,6.46 0.41,9.15 0.94,5.94 4.67,6.38 5.92,6.38 1.64,0 4.94,-0.89 5.88,-5.83 0.5,-2.78 0.5,-6.58 0.5,-9.7 0,-3.75 0,-7.13 -0.55,-10.32 -0.75,-4.73 -3.59,-6.23 -5.83,-6.23 v 0 -1.09 c 2.69,0 6.47,1.04 8.67,5.78 1.6,3.43 1.85,7.31 1.85,11.25 z"
             inkscape:connector-curvature="0"
             style="fill:#000000;stroke-width:0" /><path
             id="path1507"
             d="m 570.12,432.07 h 0.05 0.06 l 0.11,0.01 h 0.12 0.06 l 0.06,0.01 h 0.05 l 0.06,0.01 0.06,0.01 0.06,0.01 0.06,0.01 0.05,0.01 0.05,0.02 0.06,0.02 0.05,0.02 0.05,0.02 0.05,0.03 0.04,0.03 0.04,0.03 0.04,0.04 0.04,0.04 0.02,0.02 0.01,0.02 0.02,0.02 0.01,0.03 0.02,0.02 0.01,0.03 0.01,0.02 0.02,0.03 0.01,0.03 0.01,0.03 v 0.03 l 0.01,0.03 0.01,0.04 v 0.03 l 0.01,0.03 v 0.04 0.04 0.04 c 0,0.86 -0.79,0.86 -1.39,0.86 h -20.77 c -0.56,0 -1.38,0 -1.38,-0.83 0,-0.88 0.79,-0.88 1.38,-0.88 z"
             inkscape:connector-curvature="0"
             style="fill:#000000;stroke-width:0" /><path
             id="path1509"
             d="m 592.87,430.54 h -1.19 c -0.09,-0.76 -0.45,-2.83 -0.9,-3.17 -0.27,-0.2 -2.96,-0.2 -3.44,-0.2 h -6.42 c 3.65,3.23 4.87,4.2 6.97,5.84 2.58,2.06 4.98,4.22 4.98,7.53 0,4.22 -3.69,6.8 -8.15,6.8 -4.32,0 -7.25,-3.03 -7.25,-6.23 0,-1.79 1.5,-1.96 1.85,-1.96 0.83,0 1.85,0.6 1.85,1.85 0,0.62 -0.25,1.84 -2.07,1.84 1.08,2.47 3.46,3.23 5.1,3.23 3.48,0 5.3,-2.7 5.3,-5.53 0,-3.03 -2.16,-5.43 -3.28,-6.68 l -8.4,-8.3 c -0.35,-0.31 -0.35,-0.39 -0.35,-1.36 h 14.35 z"
             inkscape:connector-curvature="0"
             style="fill:#000000;stroke-width:0" /></g></g></g><g
       id="g388" /><g
       id="g390" /><g
       id="g392" /><g
       id="g394" /><g
       id="g396" /><g
       id="g398" /><g
       id="g400" /><g
       id="g402"><path
         inkscape:connector-curvature="0"
         id="path404"
         style="fill:#ffffff;fill-opacity:1;fill-rule:nonzero;stroke:none"
         d="m 231.3,90.56 h 51.22 v 61.32 H 231.3 Z" /></g><g
       id="g406" /><g
       id="g408" /><g
       id="g410" /><g
       id="g412"><text
         id="text416"
         style="font-variant:normal;font-weight:normal;font-size:11px;font-family:Helvetica;-inkscape-font-specification:Helvetica;writing-mode:lr-tb;fill:#000000;fill-opacity:1;fill-rule:nonzero;stroke:none"
         transform="matrix(1,0,0,-1,236.78,137.29)"><tspan
           id="tspan414"
           sodipodi:role="line"
           y="0"
           x="0 9.1630001 15.279 18.337 24.452999 30.569">method</tspan></text>
</g><g
       id="g418" /><g
       id="g420" /><g
       id="g422"><path
         inkscape:connector-curvature="0"
         id="path424"
         style="fill:#f2f2f2;fill-opacity:1;fill-rule:nonzero;stroke:none"
         d="m 236.78,113.32 h 17.28 v 17.28 h -17.28 z" /></g><g
       id="g426" /><g
       id="g428"><path
         inkscape:connector-curvature="0"
         id="path430"
         style="fill:#f8766d;fill-opacity:1;fill-rule:nonzero;stroke:none"
         d="m 242.93,121.96 c 0,1.37 1.12,2.49 2.49,2.49 1.37,0 2.48,-1.12 2.48,-2.49 0,-1.37 -1.11,-2.49 -2.48,-2.49 -1.37,0 -2.49,1.12 -2.49,2.49" /></g><g
       id="g432" /><g
       id="g434"><path
         inkscape:connector-curvature="0"
         id="path436"
         style="fill:none;stroke:#f8766d;stroke-width:1.07000005;stroke-linecap:butt;stroke-linejoin:round;stroke-miterlimit:10;stroke-dasharray:none;stroke-opacity:1"
         d="m 238.5,121.96 h 13.83" /></g><g
       id="g438" /><g
       id="g440"><path
         inkscape:connector-curvature="0"
         id="path442"
         style="fill:#f2f2f2;fill-opacity:1;fill-rule:nonzero;stroke:none"
         d="m 236.78,96.04 h 17.28 v 17.28 h -17.28 z" /></g><g
       id="g444" /><g
       id="g446"><path
         inkscape:connector-curvature="0"
         id="path448"
         style="fill:#00bfc4;fill-opacity:1;fill-rule:nonzero;stroke:none"
         d="m 245.42,108.55 3.35,-5.81 h -6.7 z" /></g><g
       id="g450" /><g
       id="g452"><path
         inkscape:connector-curvature="0"
         id="path454"
         style="fill:none;stroke:#00bfc4;stroke-width:1.07000005;stroke-linecap:butt;stroke-linejoin:round;stroke-miterlimit:10;stroke-dasharray:none;stroke-opacity:1"
         d="m 238.5,104.68 h 13.83" /></g><g
       id="g456" /><g
       id="g458" /><g
       id="g460" /><g
       id="g462"><text
         id="text466"
         style="font-variant:normal;font-weight:normal;font-size:9px;font-family:Helvetica;-inkscape-font-specification:Helvetica;writing-mode:lr-tb;fill:#000000;fill-opacity:1;fill-rule:nonzero;stroke:none"
         transform="matrix(1,0,0,-1,259.54,118.73)"><tspan
           id="tspan464"
           sodipodi:role="line"
           y="0"
           x="0 4.5 9.5039997 14.508">cont</tspan></text>
</g><g
       id="g468" /><g
       id="g470" /><g
       id="g472" /><g
       id="g474" /><g
       id="g476"><text
         id="text480"
         style="font-variant:normal;font-weight:normal;font-size:9px;font-family:Helvetica;-inkscape-font-specification:Helvetica;writing-mode:lr-tb;fill:#000000;fill-opacity:1;fill-rule:nonzero;stroke:none"
         transform="matrix(1,0,0,-1,259.54,101.45)"><tspan
           id="tspan478"
           sodipodi:role="line"
           y="0"
           x="0 5.0040002 10.008 13.005">ours</tspan></text>
</g><g
       id="g482" /><g
       id="g484" /><g
       id="g486" /><g
       id="g488" /><g
       id="g490" /><g
       id="g492" /><g
       id="g494" /><g
       id="g496" /><g
       id="g498" /><g
       id="g500" /><g
       id="g502" /><g
       id="g504" /><g
       id="g506" /></g></svg>